<?xml version="1.0" encoding="utf-8"?>
<!-- Generator: Adobe Illustrator 23.0.2, SVG Export Plug-In . SVG Version: 6.00 Build 0)  -->
<svg version="1.1" id="图层_1" xmlns="http://www.w3.org/2000/svg" xmlns:xlink="http://www.w3.org/1999/xlink" x="0px" y="0px"
	 viewBox="0 0 500 500" style="enable-background:new 0 0 500 500;" xml:space="preserve">
<style type="text/css">
	.st0{fill:#F3AF9D;}
	.st1{fill:#00A797;}
	.st2{fill:#008E7D;}
	.st3{fill:#60504B;}
	.st4{fill:#FFFFFF;}
	.st5{fill:#ABD1D5;}
	.st6{fill:none;}
	.st7{fill:#99AFB1;}
	.st8{fill:#DD9B8E;}
	.st9{fill:#DF7977;}
	.st10{fill:#303030;}
	.st11{fill:#181818;}
	.st12{fill:#2C323A;}
	.st13{fill:none;stroke:#4D4D4D;stroke-width:2.126;stroke-linecap:round;stroke-linejoin:round;stroke-miterlimit:10;}
	.st14{fill:#111111;}
	.st15{clip-path:url(#SVGID_2_);fill:#DF7977;}
	.st16{clip-path:url(#SVGID_4_);fill:#FFFFFF;}
	.st17{fill:none;stroke:#000000;stroke-miterlimit:10;}
</style>
<g id="illustration">
	<path class="st0" d="M201.3,259.2c0,3.7,1.3,58.1,2.7,88c1.3,29.9,4.1,72.8,4.1,72.8l27.7-0.2l4-155.4L201.3,259.2z"/>
	<path class="st0" d="M257.9,259.2c0,3.7,1.3,58.1,2.7,88s4.1,72.8,4.1,72.8l27.7-0.2l4-155.4L257.9,259.2z"/>
	<path class="st1" d="M194.1,233.3c0,0-0.9,35.7,3.1,57c0,0,26.1,9.2,43.5,2l2.5-18.7c0,0,6.5,2.2,11.9,0.6l2.7,18.7
		c0,0,17.4,9.2,45.4-2.9l-0.4-57.3C302.7,232.6,223.3,242.7,194.1,233.3z"/>
	<path class="st2" d="M198.4,246.8c5.6,2.5,11.5,4,17.3,5.7c11.2,3.3,22.5,5.7,34.2,6.5c18.2,1.2,36.3-1.5,52.9-8.6l-0.1-17.7
		c0,0-79.5,10.2-108.7,0.7c0,0-0.1,4.4-0.1,11C195.4,245.2,196.8,246.1,198.4,246.8z"/>
	<g>
		<path class="st0" d="M66.4,128.6c0,0-13.2-0.5-12.8-3.2s10.7-0.4,12.4,0c-10.1-2.6-13.1-4.8-12.7-6.4c0.3-1,5.1,0.5,9,1.8
			c-3.3-1.4-7-3.3-6.1-4.8c1.6-2.5,12.3,3.8,12.3,3.8s-3.1-6.6,0.3-7.5s9.2,11.9,9.2,11.9c0.6,0,1.4,0.2,1.9,0.2l76.6-3.8l6.1,25.9
			l-85.4-14.8c-0.2,0-0.3,0-0.3,0c-7.3,3.1-10.2,0.5-10.2,0.5s-8.8,1-9.9-1.7C56.1,128.8,66.4,128.6,66.4,128.6z"/>
	</g>
	<g>
		<path class="st0" d="M433.9,130.6c0,0,13.2-0.5,12.8-3.2c-0.4-2.7-10.7-0.4-12.4,0c10.1-2.6,13.1-4.8,12.7-6.4
			c-0.3-1-5.1,0.5-9,1.8c3.3-1.4,7-3.3,6.1-4.8c-1.6-2.5-12.3,3.8-12.3,3.8s3.1-6.6-0.3-7.5c-3.4-0.9-9.2,11.9-9.2,11.9
			c-0.6,0-1.4,0.2-1.9,0.2l-76.6-3.8l-6.1,25.9l85.4-14.8c0.2,0,0.3,0,0.3,0c7.3,3.1,10.2,0.5,10.2,0.5s8.8,1,9.9-1.7
			C444.2,130.8,433.9,130.6,433.9,130.6z"/>
	</g>
	<path class="st3" d="M264.6,420v23.4c0,24.4,27.7,25.1,27.7,2.2v-25.9L264.6,420z"/>
	<rect x="270.9" y="430.6" class="st4" width="15.3" height="2.2"/>
	<rect x="270.9" y="434.9" class="st4" width="15.3" height="2.2"/>
	<rect x="270.9" y="439.1" class="st4" width="15.3" height="2.2"/>
	<path class="st3" d="M208,420v23.4c0,24.4,27.7,25.1,27.7,2.2v-25.9L208,420z"/>
	<rect x="214.2" y="430.6" class="st4" width="15.3" height="2.2"/>
	<rect x="214.2" y="434.9" class="st4" width="15.3" height="2.2"/>
	<rect x="214.2" y="439.1" class="st4" width="15.3" height="2.2"/>
	<path class="st5" d="M186.4,240.5c0-23.6,3-58.4,15.6-83.7c4.2-8.4,9.4-15.8,16-21.2c7.9-6.6,17.6-10.6,29.7-10.6
		c13.1,0,23.4,4.6,31.7,12.1c5.1,4.7,9.5,10.6,13.1,17.2c13.8,25.2,17.2,61.2,17.2,86.2H186.4L186.4,240.5z"/>
	<line class="st6" x1="306.4" y1="240.8" x2="190" y2="240.8"/>
	<ellipse class="st4" cx="248.4" cy="138.1" rx="11" ry="8.1"/>
	<path class="st7" d="M140.9,119.6l1.5,28.4c29.4,0.1,46.8-1.1,59.6,8.9l24.4-25.1C199.2,118.4,168.9,117.9,140.9,119.6z"/>
	<path class="st7" d="M270.9,131.2l21.6,26.6c13.5-8.1,33.9-8.1,63.3-8.4V121C327.8,119.4,306.2,115.9,270.9,131.2z"/>
	<path class="st0" d="M242.8,91.9h10.4c0,0,2.2,33.7,2.8,45.4c-1,4.9-4.6,5.6-7.8,5.6c-4.1-0.1-7.9-2.4-8.6-6.2L242.8,91.9z"/>
	<path class="st8" d="M242.8,91.9h10.4c0.9,9.5-10.8,44.7-13.4,44.7L242.8,91.9z"/>
	<circle class="st9" cx="278.1" cy="85.4" r="6"/>
	<circle class="st9" cx="214.8" cy="87.4" r="6.1"/>
	<path class="st0" d="M212.2,68.4c0,0-1.3,47.2,35.7,45.5c37.1-1.7,31.5-50,31.5-50s-2.1-18-49.2-13
		C230.2,50.9,214.6,51.3,212.2,68.4z"/>
	<path class="st8" d="M228.7,106c-8.7-5.1-13.8-14.3-15.3-23.9c-1-6.3-0.7-12.6-0.4-19c-1.3,2.5-2.2,5.5-2.4,9.4
		c0,0,3.3,47.1,39.9,41.8c8.9-1.3,15-5,19.2-10C257.6,111.7,240.6,113,228.7,106z"/>
	<path class="st10" d="M280.9,69.9c-0.9,0.9-2.8,9.2-7.7-2.9c0,0-12,2.4-19.6-8.5c0,0-12,8.7-14.8-2c0,0-1.3,10.3-11.7,8.9
		c0,0-7.3,20.3-14.5,10.4c0,0-13.6-10.2,5.8-21.6c0,0,2.4-22.3,24.2-10.7c0,0,12.1-12.3,18.5,2c0,0,18.4-0.8,17.9,12.5
		C279,58,286.2,64.6,280.9,69.9z"/>
	<path class="st11" d="M277.9,64c-2.4,0.4-4.1-1.2-5.1-3.2c-0.4,1.4-1.5,2.3-3.3,1.6c-3.3-1.2-3.1-5-5.2-7.3
		c-2.8,4.8-7.9,1.7-9.9-2.3c-1.8,2-5.1,3.7-6.3,0.7c-1.7,1.6-3.9,3.3-6.3,3.6c-2.4,0.3-3.7-1.5-4.3-3.5c-2.8,3.3-8.9,12.2-12.2,6.4
		c-1.1,4-1.5,8.7-5.3,11.2c-1.3,0.9-3.3,1.6-4.7,0.5c-1.1-0.8-1.1-2.1-0.7-3.3c-1.9,1-4.3,0.5-4.3-2.3c0-0.8,0.1-1.5,0.4-2.3
		c-9.3,9.4,1.6,15.3,1.6,15.3c8,8,13.5-10.6,13.5-10.6c10.4,0.2,10.9-9,10.9-9c3.8,9.2,14.9,0.3,14.9,0.3c8.5,8.9,20.2,5.6,20.2,5.6
		c5.9,10.2,7.1,2.6,7.9,1.8c1.9-2,1.9-4,1.1-5.7C280.4,62.8,279.5,63.8,277.9,64z"/>
	<circle class="st9" cx="267.9" cy="91.9" r="6.3"/>
	<circle class="st9" cx="226.1" cy="91.9" r="6.3"/>
	<ellipse class="st8" cx="248.5" cy="90.9" rx="3.1" ry="1.8"/>
	<g>
		<ellipse class="st12" cx="230.3" cy="86.1" rx="3.1" ry="4.9"/>
		<ellipse class="st12" cx="263.4" cy="86.1" rx="3.1" ry="4.9"/>
	</g>
	<circle class="st4" cx="264.4" cy="83.8" r="1"/>
	<circle class="st4" cx="231.1" cy="83.8" r="1"/>
	<path class="st13" d="M247.6,85.7c0.1,0.7,0.2,1.5-0.3,2.1c-0.4,0.5-1.2,0.7-1.6,1.2c-0.5,0.6-0.3,1.5,0.3,2s1.4,0.6,2.2,0.5"/>
	<path class="st10" d="M267.1,78.1h-5.9c-0.4,0-0.8-0.3-0.8-0.8l0,0c0-0.4,0.3-0.8,0.8-0.8h5.9c0.4,0,0.8,0.3,0.8,0.8l0,0
		C267.9,77.8,267.5,78.1,267.1,78.1z"/>
	<path class="st10" d="M233.2,78.1h-5.9c-0.4,0-0.8-0.3-0.8-0.8l0,0c0-0.4,0.3-0.8,0.8-0.8h5.9c0.4,0,0.8,0.3,0.8,0.8l0,0
		C234,77.8,233.7,78.1,233.2,78.1z"/>
</g>
<g>
	<g>
		<path class="st14" d="M243.4,94.6c3.1,1.1,6.6,1,9.6-0.4c0,0,0.1,0,0.1-0.1c4.7-2.4,9.2,4.5,3.3,8.6c-5.9,4.1-14.9,3.7-18.9-0.8
			C234.1,97.9,237.3,92.3,243.4,94.6z"/>
		<g>
			<g>
				<defs>
					<path id="SVGID_1_" d="M243.4,94.6c3.1,1.1,6.6,1,9.6-0.4c0,0,0.1,0,0.1-0.1c4.7-2.4,9.2,4.5,3.3,8.6
						c-5.9,4.1-14.9,3.7-18.9-0.8C234.1,97.9,237.3,92.3,243.4,94.6z"/>
				</defs>
				<clipPath id="SVGID_2_">
					<use xlink:href="#SVGID_1_"  style="overflow:visible;"/>
				</clipPath>
				<path class="st15" d="M256.6,102.9c0,0,0.5-5.1-8.3-1c0,0-7.4-3.9-9.4,1.2C238.8,103.1,246,109.5,256.6,102.9z"/>
			</g>
		</g>
	</g>
	<g>
		<g>
			<defs>
				<path id="SVGID_3_" d="M243.5,94.4c3.1,1.1,6.6,1,9.6-0.4c0,0,0.1,0,0.1-0.1c4.7-2.4,9.2,4.5,3.3,8.6
					c-5.9,4.1-14.9,3.7-18.9-0.8C234.2,97.8,237.4,92.2,243.5,94.4z"/>
			</defs>
			<clipPath id="SVGID_4_">
				<use xlink:href="#SVGID_3_"  style="overflow:visible;"/>
			</clipPath>
			<path class="st16" d="M258.6,93.2c0,0,2.6,3.3-3.6,4.5c-2,0.4-12.6,1.1-14.7,0.7c-5.9-0.8-4-4.3-4-4.3S256.3,90.8,258.6,93.2z"/>
		</g>
	</g>
</g>
<g id="skeleton_1_">
	<circle id="rightShoulder" cx="193.7" cy="133.1" r="4.1"/>
	<circle id="rightElbow" cx="142" cy="133.2" r="4.1"/>
	<ellipse id="rightWrist" cx="60.3" cy="136.4" rx="4.1" ry="4.1"/>
	<circle id="rightHip" cx="218.9" cy="241.1" r="4.1"/>
	<circle id="rightKnee" cx="222.1" cy="321.1" r="4.1"/>
	<circle id="rightAnkle" cx="222.1" cy="425.1" r="4.1"/>
	<circle id="leftShoulder" cx="300.2" cy="133.1" r="4.1"/>
	<circle id="leftElbow" cx="352.4" cy="133" r="4.1"/>
	<circle id="leftWrist" cx="434.1" cy="136.1" r="4.1"/>
	<circle id="leftHip" cx="277.1" cy="240.6" r="4.1"/>
	<circle id="leftKnee" cx="277.1" cy="321.1" r="4.1"/>
	<circle id="leftAnkle" cx="277.1" cy="425.1" r="4.1"/>
	<polygon class="st17" points="193.7,133.3 218.8,241.2 277,240.8 300.1,133.3 	"/>
	<polyline class="st17" points="193.2,133.3 141.8,133.3 60.2,136.4 	"/>
	<polyline class="st17" points="300.9,133.1 352.5,133.1 434.1,136.3 	"/>
	<polyline class="st17" points="218.8,241.2 222,321.3 222,425.3 	"/>
	<polyline class="st17" points="277,240.8 277,321.3 277,425.3 	"/>
	<circle id="rightEye0" cx="231.6" cy="66.1" r="0.4"/>
	<circle id="rightEye1" cx="234.2" cy="64.2" r="0.4"/>
	<circle id="rightEye2" cx="237.4" cy="64.2" r="0.4"/>
	<circle id="rightEye3" cx="240" cy="66.3" r="0.4"/>
	<circle id="rightEye4" cx="237.4" cy="66.8" r="0.4"/>
	<circle id="rightEye5" cx="234.2" cy="67.2" r="0.4"/>
	<circle id="rightBrow0" cx="228.5" cy="62" r="0.4"/>
	<circle id="rightBrow1" cx="230.5" cy="60.2" r="0.4"/>
	<circle id="rightBrow2" cx="233.6" cy="59.7" r="0.4"/>
	<circle id="rightBrow3" cx="237.3" cy="59.7" r="0.4"/>
	<circle id="rightBrow4" cx="242.2" cy="61.7" r="0.4"/>
	<circle id="nose0" cx="246.1" cy="63.7" r="0.4"/>
	<circle id="nose1" cx="246.1" cy="66.6" r="0.4"/>
	<circle id="nose2" cx="246.1" cy="69.3" r="0.4"/>
	<circle id="nose3" cx="246.1" cy="72.9" r="0.4"/>
	<circle id="nose4" cx="246.1" cy="75.6" r="0.4"/>
	<circle id="rightNose0" cx="240.8" cy="75.2" r="0.4"/>
	<circle id="rightNose1" cx="243.4" cy="75.2" r="0.4"/>
	<circle id="rightMouthCorner" cx="237.8" cy="86.2" r="0.4"/>
	<circle id="rightUpperLipTop0" cx="241.2" cy="84.5" r="0.4"/>
	<circle id="rightLowerLipTop0" cx="244.6" cy="87.4" r="0.4"/>
	<circle id="rightUpperLipTop1" cx="244.5" cy="83.9" r="0.4"/>
	<circle id="upperLipTopMid" cx="246.5" cy="84.4" r="0.4"/>
	<path id="rightMiddleLip" d="M239.6,85.9c0.2,0,0.4,0.2,0.4,0.4c0,0.2-0.2,0.4-0.4,0.4s-0.4-0.2-0.4-0.4S239.4,85.9,239.6,85.9z"/>
	<circle id="lowerLipBottomMid" cx="246.5" cy="91" r="0.4"/>
	<circle id="upperLipBottomMid" cx="246.5" cy="86.2" r="0.4"/>
	<circle id="lowerLipTopMid" cx="246.5" cy="87.8" r="0.4"/>
	<circle id="rightUpperLipBottom1" cx="244.6" cy="85.9" r="0.4"/>
	<circle id="rightLowerLipBottom0" cx="241" cy="89.3" r="0.4"/>
	<circle id="rightLowerLipBottom1" cx="244.5" cy="90.8" r="0.4"/>
	<circle id="jawMid" cx="246.5" cy="103.9" r="0.4"/>
	<circle id="rightJaw7" cx="239" cy="102.3" r="0.4"/>
	<circle id="rightJaw6" cx="234" cy="98.9" r="0.4"/>
	<circle id="rightJaw5" cx="228.2" cy="92.7" r="0.4"/>
	<circle id="rightJaw4" cx="224.8" cy="82.7" r="0.4"/>
	<circle id="rightJaw3" cx="224.4" cy="71.8" r="0.4"/>
	<circle id="rightJaw2" cx="224.4" cy="67.1" r="0.4"/>
	<circle id="rightJaw1" cx="224.8" cy="61.2" r="0.4"/>
	<circle id="rightJaw0" cx="226.1" cy="56.6" r="0.4"/>
	<circle id="topMid" cx="246.6" cy="43.5" r="0.4"/>
	<circle id="leftTop0" cx="256.5" cy="44.8" r="0.4"/>
	<circle id="leftTop1" cx="262.8" cy="49.5" r="0.4"/>
	<circle id="leftEye0" cx="261.4" cy="66.1" r="0.4"/>
	<circle id="leftEye1" cx="258.8" cy="64.2" r="0.4"/>
	<circle id="leftEye2" cx="255.7" cy="64.2" r="0.4"/>
	<circle id="leftEye3" cx="253.1" cy="66.3" r="0.4"/>
	<circle id="leftEye5" cx="258.8" cy="67.2" r="0.4"/>
	<circle id="leftBrow0" cx="264.4" cy="61.8" r="0.4"/>
	<circle id="leftBrow1" cx="262.4" cy="60.3" r="0.4"/>
	<circle id="leftBrow2" cx="259.2" cy="59.6" r="0.4"/>
	<circle id="leftBrow3" cx="255.6" cy="59.8" r="0.4"/>
	<circle id="leftBrow4" cx="250.6" cy="61.4" r="0.4"/>
	<circle id="leftNose0" cx="251.3" cy="75.2" r="0.4"/>
	<circle id="leftNose1" cx="248.9" cy="75.2" r="0.4"/>
	<circle id="leftMouthCorner" cx="255.3" cy="86.2" r="0.4"/>
	<circle id="leftUpperLipTop0" cx="251.8" cy="84.5" r="0.4"/>
	<circle id="leftUpperLipTop1" cx="248.6" cy="83.9" r="0.4"/>
	<path id="leftMiddleLip" d="M253.5,85.9c0.2,0,0.4,0.2,0.4,0.4c0,0.2-0.2,0.4-0.4,0.4s-0.4-0.2-0.4-0.4S253.3,85.9,253.5,85.9z"/>
	<circle id="leftUpperLipBottom1" cx="248.5" cy="85.9" r="0.4"/>
	<circle id="leftLowerLipTop0" cx="248.5" cy="87.4" r="0.4"/>
	<circle id="leftLowerLipBottom1" cx="248.6" cy="90.8" r="0.4"/>
	<circle id="leftLowerLipBottom0" cx="252.1" cy="89.3" r="0.4"/>
	<circle id="leftEye4" cx="255.7" cy="66.8" r="0.4"/>
	<circle id="leftJaw7" cx="253.9" cy="102.5" r="0.4"/>
	<circle id="leftJaw6" cx="258.9" cy="99.2" r="0.4"/>
	<circle id="leftJaw5" cx="264.7" cy="92.8" r="0.4"/>
	<circle id="leftJaw4" cx="268.1" cy="82.8" r="0.4"/>
	<circle id="leftJaw3" cx="268.5" cy="72.1" r="0.4"/>
	<circle id="leftJaw2" cx="268.5" cy="67.2" r="0.4"/>
	<circle id="leftJaw1" cx="268.1" cy="61.4" r="0.4"/>
	<circle id="leftJaw0" cx="266.9" cy="56.8" r="0.4"/>
	<polyline class="st17" points="246.5,43.5 236.6,44.8 230.4,49.5 226.1,56.6 224.8,61.2 224.4,67.1 224.4,71.8 224.8,82.7 
		228.2,92.7 234,98.9 239,102.3 246.5,103.9 253.9,102.5 258.9,99.2 264.7,92.8 268.1,82.8 268.5,72.1 268.5,67.2 268.1,61.4 
		266.9,56.8 262.8,49.5 256.5,44.8 246.5,43.5 	"/>
	<polyline class="st17" points="228.5,62 230.5,60.2 233.6,59.7 237.3,59.7 242.2,61.7 	"/>
	<polygon class="st17" points="231.6,66.1 234.2,64.2 237.4,64.2 240,66.3 237.4,66.8 234.2,67.2 	"/>
	<polyline class="st17" points="240.8,75.2 243.4,75.2 246.1,75.6 246.1,72.9 246.1,69.3 246.1,66.6 246.1,63.7 	"/>
	<polyline class="st17" points="264.3,61.8 262.3,60.3 259.1,59.6 255.5,59.8 250.5,61.4 	"/>
	<polygon class="st17" points="261.3,66.1 258.7,64.2 255.5,64.2 253,66.3 255.5,66.8 258.7,67.2 	"/>
	<polyline class="st17" points="251.3,75.2 248.8,75.2 246.1,75.6 	"/>
	<polygon class="st17" points="237.8,86.2 241.2,84.5 244.5,83.9 246.5,84.4 248.6,83.9 251.8,84.5 255.3,86.2 252.1,89.3 
		248.5,90.8 246.5,91 244.5,90.8 241,89.3 	"/>
	<polyline class="st17" points="237.8,86.2 239.6,86.3 244.6,85.9 246.5,86.2 248.5,85.9 253.5,86.3 255.3,86.2 	"/>
	<polyline class="st17" points="237.8,86.2 239.6,86.3 244.6,87.4 246.5,87.8 248.5,87.4 253.5,86.3 255.3,86.2 	"/>
	<circle id="rightTop0" cx="236.7" cy="44.8" r="0.4"/>
	<circle id="rightTop1" cx="230.4" cy="49.5" r="0.4"/>
</g>
</svg>
