<?xml version="1.0" encoding="utf-8"?>
<svg version="1.1" id="Layer_1" xmlns="http://www.w3.org/2000/svg" xmlns:xlink="http://www.w3.org/1999/xlink" x="0px"
     y="0px"
     width="1200px" height="1200px" viewBox="0 0 1200 1200" style="enable-background:new 0 0 400 650;"
     xml:space="preserve">
<g id="illustration">
    <path transform="translate(0, 0)" fill="#CBDEE3"
          d="M108.4,261.6c0,0-1,36.2,0,43.5h21.5c0,0-3-30.5-1-43.5H108.4z"></path>
    <path transform="translate(0, 0)" fill="#CBDEE3"
          d="M221.1,258.6c0,0-0.7,44-2.1,46.5h22c0,0,2.5-28.2,0-46.5H221.1z"></path>
    <path transform="translate(0, 0)" fill="#E5F2F5"
          d="M196.1,299.4c0,0-21.1,6.7-43.1,0c0,0-29.8-51.5-3.6-148.2h48.7C198.1,151.1,215.8,260.1,196.1,299.4z"></path>
    <path transform="translate(0, 0)" fill="#083657"
          d="M149.4,149c0,0-22.2,2.7-29.5,13.3c-7.3,10.6-9,29-11.7,49.2c-2.7,20.3-1.9,49.4-1.9,49.4H131c0,0-1.1-20.3,2.7-33.8c0,0-3.8,70.2-1.6,78.5c0,0,15.6,8,21.5,5.7C153.7,311.3,145.4,164.7,149.4,149z"></path>
    <path transform="translate(0, 0)" fill="#083657"
          d="M198.1,148c0,0,0.3,152.4-3.2,161.3c0,0,14.7,2,23.9-7.6l-2.4-77.2l2.4,33.1h23.6c0,0,2.2-36.7-5-65.5C230.1,163.3,229.1,153.2,198.1,148z"></path>
    <path transform="translate(0, 0)" fill="#93A7A7" d="M198.1,151.1l0,1.6c0,0-20.7,16-49.1,1.3l0.4-2.8"></path>
    <path transform="translate(0, 0)" fill="#C6DFE2"
          d="M163.6,144.3c0,0,9.7,8.3,25.2,0c0,0,4.3,7.7,11.3,7.8c0,0-20.8,14.3-48.7,0C151.4,152.1,160.4,150.6,163.6,144.3z"></path>
    <ellipse transform="translate(0, 0)" fill="#423845" cx="142.7" cy="178.9" rx="2.6" ry="2.8"></ellipse>
    <ellipse transform="translate(0, 0)" fill="#524850" cx="198.1" cy="178.9" rx="2.6" ry="2.8"></ellipse>
    <path transform="translate(0, 0)" fill="#92868F"
          d="M198.1,176.2c-0.2,0-0.4,0-0.6,0.1c1.1,0.3,2,1.4,2,2.7c0,1.3-2,2.4-2,2.7c0.2,0.1,0.4,0.1,0.6,0.1c1.4,0,2.6-1.2,2.6-2.8C200.7,177.4,199.5,176.2,198.1,176.2z"></path>
    <ellipse transform="translate(0, 0)" fill="#524850" cx="198.1" cy="207.4" rx="2.6" ry="2.8"></ellipse>
    <path transform="translate(0, 0)" fill="#92868F"
          d="M198.1,204.6c-0.2,0-0.4,0-0.6,0.1c1.1,0.3,2,1.4,2,2.7c0,1.3-2,2.4-2,2.7c0.2,0.1,0.4,0.1,0.6,0.1c1.4,0,2.6-1.2,2.6-2.8C200.7,205.9,199.5,204.6,198.1,204.6z"></path>
    <ellipse transform="translate(0, 0)" fill="#524850" cx="197.4" cy="236.4" rx="2.6" ry="2.8"></ellipse>
    <path transform="translate(0, 0)" fill="#92868F"
          d="M198.1,204.6c-0.2,0-0.4,0-0.6,0.1c1.1,0.3,2,1.4,2,2.7c0,1.3-2,2.4-2,2.7c0.2,0.1,0.4,0.1,0.6,0.1c1.4,0,2.6-1.2,2.6-2.8C200.7,205.9,199.5,204.6,198.1,204.6z"></path>
    <ellipse transform="translate(0, 0)" fill="#524850" cx="197.4" cy="269" rx="2.6" ry="2.8"></ellipse>
    <path transform="translate(0, 0)" fill="#92868F"
          d="M197.4,266.3c-0.2,0-0.4,0-0.6,0.1c1.1,0.3,2,1.4,2,2.7c0,1.3-2,2.4-2,2.7c0.2,0.1,0.4,0.1,0.6,0.1c1.4,0,2.6-1.2,2.6-2.8C200,267.5,198.9,266.3,197.4,266.3z"></path>
    <ellipse transform="translate(0, 0)" fill="#423845" cx="142.7" cy="208.6" rx="2.6" ry="2.8"></ellipse>
    <ellipse transform="translate(0, 0)" fill="#423845" cx="144" cy="236.4" rx="2.6" ry="2.8"></ellipse>
    <ellipse transform="translate(0, 0)" fill="#423845" cx="145.3" cy="269" rx="2.6" ry="2.8"></ellipse>
    <path transform="translate(0, 0)" fill="#E5F2F5" d="M149.4,151.1c0,0,23.2,14.7,48.7,0"></path>
    <path transform="translate(0, 0)" fill-opacity="0.6" fill="#93A7A7"
          d="M198.1,151.1c0,0-43.9,39.9-43.4,78.1l-4,23.7c0,0-2.1-55.6-2.2-61.1c-0.1-5.5-0.7-34.6,0.9-40.7C149.4,151.1,173.2,165.1,198.1,151.1z"></path>
    <path transform="translate(0, 0)" fill="#524850"
          d="M154.7,178.9c0,0.9-0.7,1.6-1.6,1.6h-8.8c-0.9,0-1.6-0.7-1.6-1.6l0,0c0-0.9,0.7-1.6,1.6-1.6h8.8C154,177.4,154.7,178.1,154.7,178.9L154.7,178.9z"></path>
    <path transform="translate(0, 0)" fill="#524850"
          d="M154.7,208.6c0,0.9-0.7,1.6-1.6,1.6h-8.8c-0.9,0-1.6-0.7-1.6-1.6l0,0c0-0.9,0.7-1.6,1.6-1.6h8.8C154,207,154.7,207.7,154.7,208.6L154.7,208.6z"></path>
    <path transform="translate(0, 0)" fill="#524850"
          d="M156,236.4c0,0.9-0.7,1.6-1.6,1.6h-8.8c-0.9,0-1.6-0.7-1.6-1.6l0,0c0-0.9,0.7-1.6,1.6-1.6h8.8C155.3,234.8,156,235.5,156,236.4L156,236.4z"></path>
    <path transform="translate(0, 0)" fill="#524850"
          d="M157.3,269c0,0.9-0.7,1.6-1.6,1.6h-8.8c-0.9,0-1.6-0.7-1.6-1.6l0,0c0-0.9,0.7-1.6,1.6-1.6h8.8C156.6,267.5,157.3,268.2,157.3,269L157.3,269z"></path>
    <path transform="translate(0, 0)" fill-opacity="2" fill="#93A7A7"
          d="M128.9,261.6h-20.5c0,0-0.5,16.7-0.4,19.7C108,281.3,113.6,264.9,128.9,261.6z"></path>
    <path transform="translate(0, 0)" fill="#93A7A7"
          d="M242.1,273.3l-1-14.7h-20l0,2.1C221.1,260.7,241.7,273.5,242.1,273.3z"></path>
    <path transform="translate(0, 0)" fill="#213645"
          d="M133.7,230.7c-0.1,0-0.2,0-0.3,0c-1.4-0.1-2.3-1.4-2.2-2.7l3.2-30.9c0.1-1.4,1.3-2.4,2.7-2.2c1.4,0.1,2.3,1.4,2.2,2.7l-3.2,30.9C136,229.8,134.9,230.7,133.7,230.7z"></path>
    <path transform="translate(0, 0)" fill="#213645"
          d="M216.4,229.2c-1.3,0-2.3-0.9-2.5-2.2l-2.9-28.4c-0.1-1.4,0.9-2.6,2.2-2.7c1.4-0.1,2.6,0.9,2.7,2.2l2.9,28.4c0.1,1.4-0.9,2.6-2.2,2.7C216.6,229.2,216.5,229.2,216.4,229.2z"></path>
    <path transform="translate(0, 0)" fill="#213645"
          d="M133.9,300.6L126,543.9l43-2.1l8.1-205.3l11.1,207.4h40.3l-5.8-244.3C222.8,299.5,192.1,274.2,133.9,300.6z"></path>
    <path transform="translate(0, 0)" fill="#182A37"
          d="M133.5,310.6L126,544l13.9-0.9l5.6-229.4C145.5,313.8,143.7,311.1,133.5,310.6z"></path>
    <path transform="translate(0, 0)" fill="#182A37"
          d="M191.4,314.6C191.4,314.6,191.4,314.6,191.4,314.6c9.3-0.9,19.8-2.6,31.6-5.1l-0.2-7.2l-23.1-3.5c0,0-19.7,8-44.9,0.5l-21.2,6.7l-0.1,4.6c0,0,4.1,1.9,12.8,3.4c4.6,0.9,26.3,5.8,30.7,22.5l11.1,207.4h10.3l-14.8-223.6C185.7,317.7,188.5,314.9,191.4,314.6z M180.2,315.8l-1.8-0.2c0.6,0,1.2-0.1,1.8-0.1L180.2,315.8z"></path>

    <ellipse transform="translate(0, -8)" fill="#231715" cx="157" cy="103.8" rx="4.7" ry="5.8"></ellipse>
    <ellipse transform="translate(0, -8)" fill="#231715" cx="192.6" cy="103.8" rx="4.7" ry="5.8"></ellipse>
    <path transform="translate(0, 0)" fill="#846246"
          d="M199.1,91.8c-0.1,0-0.1,0-0.2,0c-8.6-1-12.6,0-12.6,0c-0.7,0.2-1.4-0.2-1.6-1c-0.2-0.7,0.2-1.4,1-1.6c0.2,0,4.4-1.1,13.6,0c0.7,0.1,1.3,2,1.2,1.5C200.4,91.3,199.8,91.8,199.1,91.8z"></path>
    <path transform="translate(0, 0)" fill="#846246"
          d="M162.9,91.8c-0.1,0-0.2,0-0.3,0c0,0-4-1-12.6,0c-0.7,0.1-1.4-0.4-1.5-1.2c-0.1-0.7,0.4-1.4,1.2-1.5c9.2-1.1,13.4,0,13.6,0c0.7,0.2,1.1,0.9,1,1.6C164.1,91.4,163.5,91.8,162.9,91.8z"></path>
    <path d="M175,114.2c-1.8,0-4.2-0.6-4.9-2.1c-0.4-0.9-0.3-1.9,0.5-2.7c1.3-1.4,2.5-7.7,3-11.7c0.1-0.7,2-1.3,1.5-1.2c0.7,0.1,1.3,2,1.2,1.5c-0.2,1.7-1.3,10.2-3.6,13c0.6,0.3,2.1,0.6,3.2,0.4c0.5-0.1,0.7-0.3,0.7-0.3c0.2-0.7,0.9-1.2,1.6-1c0.7,0.2,1.2,0.9,1,1.6c-0.3,1.3-1.6,2.2-3.4,2.4C175.6,114.2,175.3,114.2,175,114.2z"></path>
    <path transform="translate(0, 0)" fill="#846246"
          d="M174.5,125.3c-8.9,0-13.7-5.7-13.9-6c-0.5-0.6-0.4-1.4,0.2-1.9c0.6-0.5,1.4-0.4,1.9,0.2c0.2,0.2,4.2,5,11.8,5c7.5,0,10.3-5.1,10.3-5.1c0.4-0.7,1.2-0.9,1.8-0.5c0.7,0.4,0.9,1.2,0.5,1.8C187.1,119,183.6,125.3,174.5,125.3z"></path>
    <path transform="translate(0, 0)" fill="#231715"
          d="M158.1,113.6c-8.6,0-15.6-7-15.6-15.6c0-8.6,7-15.6,15.6-15.6c8.6,0,15.6,7,15.6,15.6C173.7,106.6,166.7,113.6,158.1,113.6z M158.1,85.1c-7.1,0-12.9,5.8-12.9,12.9c0,7.1,5.8,12.9,12.9,12.9c7.1,0,12.9-5.8,12.9-12.9C171,90.9,165.3,85.1,158.1,85.1z"></path>
    <path transform="translate(0, 0)" fill="#231715"
          d="M195.1,113.6c-8.6,0-15.6-7-15.6-15.6c0-8.6,7-15.6,15.6-15.6c8.6,0,15.6,7,15.6,15.6C210.7,106.6,203.7,113.6,195.1,113.6z M195.1,85.1c-7.1,0-12.9,5.8-12.9,12.9c0,7.1,5.8,12.9,12.9,12.9S208,105.2,208,98C208,90.9,202.2,85.1,195.1,85.1z"></path>
    <path transform="translate(0, 0)" fill="#231715"
          d="M173.2,99.1l-1.7-2.1c1.8-1.5,6.3-3.4,10.2,0l-1.8,2C176.8,96.2,173.4,99,173.2,99.1z"></path>
    <path class="st13"
          d="M198.3,71.9c0,0-8.3,9.4-45.6,0.8c0,0-16.5,16.1-12.7,31.5l-6.3-1.4c0,0-4.6-31.8,10.3-45.1c14.9-13.3,29.7-17.4,39.4-15.2C193,44.6,196.3,53,196.3,53s14.3,3,17,19.3c2.7,16.3,0.5,29.8,0.5,29.8l-5.2,1.3c0,0-1.9-5.7-2.1-17.1C206.4,86.4,198.6,81.4,198.3,71.9z"/>
    -

    <path transform="translate(0, 0)" fill="#15110E"
          d="M168,551.9l-0.2,5h-7.1c0,0-3.2-0.9-5.5,0c-2.3,0.9-25.8,9.4-38.5,8.1c-12.7-1.3-8-9.7-8-9.7L168,551.9z"></path>
    <path transform="translate(0, 0)" fill="#372E26"
          d="M128.8,543.4c0,0-22.5,5.6-19.8,14.4c2.7,8.8,39-2,44.9-2.7c5.9-1.9,5.7-2,8.1-0.8s5.9,0.1,5.9,0.1l0.8-12.7L128.8,543.4z"></path>
    <path transform="translate(0, 0)" fill="#15110E"
          d="M188.9,550.7l0.2,6.2h7.1c0,0,3.2-0.9,5.5,0c2.3,0.9,25.9,9.4,38.5,8.1c12.7-1.3,8-9.7,8-9.7L188.9,550.7z"></path>
    <path transform="translate(0, 0)" fill="#372E26"
          d="M228.2,543.4c0,0,22.5,5.6,19.8,14.4c-2.7,8.8-39-2-44.9-2.7c-5.9-1.9-5.7-2-8.1-0.8c-2.3,0-5.9,0.1-5.9,0.1l-2-12.7L228.2,543.4z"></path>
        </g>
    <g id="skeleton_1_">
        <!-- 身体轮廓 -->
        <circle id="rightShoulder" cx="135" cy="170" r="8.2"/>
        <circle id="rightElbow" cx="120" cy="230" r="8.2"/>
        <ellipse id="rightWrist" transform="matrix(0.9951 -9.853767e-02 9.853767e-02 0.9951 -29.0274 13.8698)" cx="120"
                 cy="315" rx="8.2" ry="8.2"/>
        <circle id="rightHip" cx="155" cy="320" r="8.2"/>
        <circle id="rightKnee" cx="150" cy="420" r="8.2"/>
        <circle id="rightAnkle" cx="140" cy="550" r="8.2"/>
        <circle id="leftShoulder" cx="205" cy="170" r="8.2"/>
        <circle id="leftElbow" cx="230" cy="230" r="8.2"/>
        <circle id="leftWrist" cx="230" cy="315" r="8.2"/>
        <circle id="leftHip" cx="205" cy="320" r="8.2"/>
        <circle id="leftKnee" cx="205" cy="420" r="8.2"/>
        <circle id="leftAnkle" cx="220" cy="550" r="8.2"/>
        <polygon style="fill:none;stroke:#000000;stroke-miterlimit:10;" points="135,170 155,320 205,320 205,170"/>
        <polyline style="fill:none;stroke:#000000;stroke-miterlimit:10;" points="135,170 120,230 120,315"/>
        <polyline style="fill:none;stroke:#000000;stroke-miterlimit:10;" points="205,170 230,230 230,315"/>
        <polyline style="fill:none;stroke:#000000;stroke-miterlimit:10;" points="205,320 205,420 220,550"/>
        <polyline style="fill:none;stroke:#000000;stroke-miterlimit:10;" points="155,320 150,420 140,550"/>

        <!--        头点轮廓-->
        <circle id="rightTop0" cx="168" cy="50" r="1"/>
        <circle id="rightTop1" cx="156" cy="57" r="1"/>
        <circle id="topMid" cx="188" cy="50" r="1"/>
        <circle id="leftTop0" cx="200" cy="58" r="1"/>
        <circle id="leftTop1" cx="207" cy="70" r="1"/>
        <circle id="jawMid" cx="182" cy="138" r="1"/>
        <circle id="rightJaw7" cx="175" cy="138" r="1"/>
        <circle id="rightJaw6" cx="165" cy="135" r="1"/>
        <circle id="rightJaw5" cx="154" cy="128" r="1"/>
        <circle id="rightJaw4" cx="147" cy="115" r="1"/>
        <circle id="rightJaw3" cx="144" cy="101" r="1"/>
        <circle id="rightJaw2" cx="144" cy="92" r="1"/>
        <circle id="rightJaw1" cx="145" cy="80" r="1"/>
        <circle id="rightJaw0" cx="147" cy="70" r="1"/>
        <circle id="leftJaw7" cx="190" cy="135" r="1"/>
        <circle id="leftJaw6" cx="199" cy="128" r="1"/>
        <circle id="leftJaw5" cx="206" cy="120" r="1"/>
        <circle id="leftJaw4" cx="208" cy="112" r="1"/>
        <circle id="leftJaw3" cx="210" cy="104" r="1"/>
        <circle id="leftJaw2" cx="210" cy="96" r="1"/>
        <circle id="leftJaw1" cx="210" cy="88" r="1"/>
        <circle id="leftJaw0" cx="210" cy="80" r="1"/>
        <!--        眼睛点轮廓-->
        <circle id="leftEye0" cx="205" cy="80" r="1"/>
        <circle id="leftEye1" cx="200" cy="76" r="1"/>
        <circle id="leftEye2" cx="195" cy="76" r="1"/>
        <circle id="leftEye3" cx="190" cy="80" r="1"/>
        <circle id="leftEye4" cx="195" cy="81" r="1"/>
        <circle id="leftEye5" cx="200" cy="82" r="1"/>
        <circle id="rightEye0" cx="153" cy="80" r="1"/>
        <circle id="rightEye1" cx="158" cy="76" r="1"/>
        <circle id="rightEye2" cx="163" cy="76" r="1"/>
        <circle id="rightEye3" cx="168" cy="80" r="1"/>
        <circle id="rightEye4" cx="163" cy="81" r="1"/>
        <circle id="rightEye5" cx="158" cy="82" r="1"/>
        <!--        眉毛点轮廓-->
        <circle id="rightBrow0" cx="150" cy="72" r="1"/>
        <circle id="rightBrow1" cx="154" cy="69" r="1"/>
        <circle id="rightBrow2" cx="160" cy="68" r="1"/>
        <circle id="rightBrow3" cx="167" cy="69" r="1"/>
        <circle id="rightBrow4" cx="173" cy="71" r="1"/>
        <circle id="leftBrow0" cx="208" cy="72" r="1"/>
        <circle id="leftBrow1" cx="202" cy="69" r="1"/>
        <circle id="leftBrow2" cx="196" cy="68" r="1"/>
        <circle id="leftBrow3" cx="190" cy="69" r="1"/>
        <circle id="leftBrow4" cx="184" cy="71" r="1"/>
        <!--        鼻子点轮廓-->
        <circle id="leftNose0" cx="190" cy="98" r="1"/>
        <circle id="leftNose1" cx="185" cy="98" r="1"/>
        <circle id="nose0" cx="179" cy="75" r="1"/>
        <circle id="nose1" cx="179" cy="81" r="1"/>
        <circle id="nose2" cx="179" cy="86" r="1"/>
        <circle id="nose3" cx="179" cy="93" r="1"/>
        <circle id="nose4" cx="179" cy="99" r="1"/>
        <circle id="rightNose0" cx="167" cy="97" r="1"/>
        <circle id="rightNose1" cx="174" cy="97" r="1"/>
        <!--        嘴点轮廓-->
        <circle id="rightMouthCorner" cx="160" cy="115" r="1"/>
        <circle id="rightMiddleLip" cx="164" cy="115" r="1"/>
        <circle id="rightUpperLipTop0" cx="167" cy="112" r="1"/>
        <circle id="upperLipTopMid" cx="178" cy="110" r="1"/>
        <circle id="rightUpperLipTop1" cx="174" cy="110" r="1"/>
        <circle id="lowerLipBottomMid" cx="178" cy="125" r="1"/>
        <circle id="upperLipBottomMid" cx="178" cy="115" r="1"/>
        <circle id="lowerLipTopMid" cx="178" cy="119" r="1"/>
        <circle id="rightUpperLipBottom1" cx="174" cy="115" r="1"/>
        <circle id="rightLowerLipTop0" cx="174" cy="119" r="1"/>
        <circle id="rightLowerLipBottom1" cx="174" cy="124" r="1"/>
        <circle id="rightLowerLipBottom0" cx="167" cy="121" r="1"/>

        <circle id="leftMouthCorner" cx="196" cy="115" r="1"/>
        <circle id="leftMiddleLip" cx="192" cy="115" r="1"/>
        <circle id="leftUpperLipTop0" cx="189" cy="112" r="1"/>
        <circle id="leftUpperLipTop1" cx="182" cy="110" r="1"/>

        <circle id="leftUpperLipBottom1" cx="182" cy="115" r="1"/>
        <circle id="leftLowerLipTop0" cx="182" cy="119" r="1"/>
        <circle id="leftLowerLipBottom1" cx="182" cy="124" r="1"/>
        <circle id="leftLowerLipBottom0" cx="189" cy="121" r="1"/>

        <!--头轮廓-->
        <polyline style="fill:none;stroke:#000000;stroke-miterlimit:10;"
                  points="168,50 156,57 147,70 145,80 144,92 144,101 147,115 154,128 165,135 175,138 182,138 190,135 199,128 206,120 208,112 210,104 210,96 210,88 210,80 207,70 200,58 188,50 168,50"/>

        <!-- 眼睛和眉毛 -->
        <!--        左眼-->
        <polyline style="fill:none;stroke:#000000;stroke-miterlimit:10;"
                  points="153,80 158,76 163,76 168,80 158,82 163,81 153,80"/>
        <!--        左眉毛-->
        <polyline style="fill:none;stroke:#000000;stroke-miterlimit:10;" points="150,72 154,69 160,68 167,69 173,71"/>
        <!--                鼻子-->
        <polyline style="fill:none;stroke:#000000;stroke-miterlimit:10;"
                  points="179,75 179,81 179,86 179,93 179,99 174,97 167,97 185,98 190,98"/>
        <polyline style="fill:none;stroke:#000000;stroke-miterlimit:10;" points="208,72 202,69 196,68 190,69 184,71"/>
        <polyline style="fill:none;stroke:#000000;stroke-miterlimit:10;"
                  points="205,80 200,76 195,76 190,80 195,81 200,82 205,80"/>

        <!-- 嘴巴 -->
        <polyline style="fill:none;stroke:#000000;stroke-miterlimit:10;"
                  points="160,115 167,112 174,110 178,110 182,110 189,112 195,115 189,121 182,124 178,125 174,124 167,121 160,115 174,115 175,115 182,115 195,115 182,115 182,119 178,119 174,119 174,115"/>
    </g>
</svg>
