<?xml version="1.0" encoding="utf-8"?>
<!-- Generator: Adobe Illustrator 23.0.2, SVG Export Plug-In . SVG Version: 6.00 Build 0)  -->
<svg version="1.1" id="Layer_1" xmlns="http://www.w3.org/2000/svg" xmlns:xlink="http://www.w3.org/1999/xlink" x="0px" y="0px"
	 viewBox="0 0 500 500" style="enable-background:new 0 0 500 500;" xml:space="preserve">
<style type="text/css">
	.st0{fill:#F3AF9D;}
	.st1{fill:#00A797;}
	.st2{fill:#008E7D;}
	.st3{fill:#60504B;}
	.st4{fill:#FFFFFF;}
	.st5{fill:#ABD1D5;}
	.st6{fill:none;}
	.st7{fill:#99AFB1;}
	.st8{fill:#DD9B8E;}
	.st9{fill:#DF7977;}
	.st10{fill:#303030;}
	.st11{fill:#181818;}
	.st12{fill:#2C323A;}
	.st13{fill:none;stroke:#4D4D4D;stroke-width:2.126;stroke-linecap:round;stroke-linejoin:round;stroke-miterlimit:10;}
	.st14{fill:#111111;}
	.st15{clip-path:url(#SVGID_2_);fill:#DF7977;}
	.st16{clip-path:url(#SVGID_4_);fill:#FFFFFF;}
	.st17{fill:none;stroke:#000000;stroke-miterlimit:10;}
</style>
<g id="illustration">
	<path class="st0" d="M203.3,273.2c0,3.7,1.3,58.1,2.7,88c1.3,29.9,4.1,72.8,4.1,72.8l27.7-0.2l4-155.4L203.3,273.2z"/>
	<path class="st0" d="M259.9,273.2c0,3.7,1.3,58.1,2.7,88s4.1,72.8,4.1,72.8l27.7-0.2l4-155.4L259.9,273.2z"/>
	<path class="st1" d="M196.1,247.3c0,0-0.9,35.7,3.1,57c0,0,26.1,9.2,43.5,2l2.5-18.7c0,0,6.5,2.2,11.9,0.6l2.7,18.7
		c0,0,17.4,9.2,45.4-2.9l-0.4-57.3C304.7,246.6,225.3,256.7,196.1,247.3z"/>
	<path class="st2" d="M200.4,260.8c5.6,2.5,11.5,4,17.3,5.7c11.2,3.3,22.5,5.7,34.2,6.5c18.2,1.2,36.3-1.5,52.9-8.6l-0.1-17.7
		c0,0-79.5,10.2-108.7,0.7c0,0-0.1,4.4-0.1,11C197.4,259.2,198.8,260.1,200.4,260.8z"/>
	<g>
		<path class="st0" d="M68.4,142.6c0,0-13.2-0.5-12.8-3.2c0.4-2.7,10.7-0.4,12.4,0c-10.1-2.6-13.1-4.8-12.7-6.4c0.3-1,5.1,0.5,9,1.8
			c-3.3-1.4-7-3.3-6.1-4.8c1.6-2.5,12.3,3.8,12.3,3.8s-3.1-6.6,0.3-7.5c3.4-0.9,9.2,11.9,9.2,11.9c0.6,0,1.4,0.2,1.9,0.2l76.6-3.8
			l6.1,25.9l-85.4-14.8c-0.2,0-0.3,0-0.3,0c-7.3,3.1-10.2,0.5-10.2,0.5s-8.8,1-9.9-1.7C58.1,142.8,68.4,142.6,68.4,142.6z"/>
	</g>
	<g>
		<path class="st0" d="M435.9,144.6c0,0,13.2-0.5,12.8-3.2c-0.4-2.7-10.7-0.4-12.4,0c10.1-2.6,13.1-4.8,12.7-6.4
			c-0.3-1-5.1,0.5-9,1.8c3.3-1.4,7-3.3,6.1-4.8c-1.6-2.5-12.3,3.8-12.3,3.8s3.1-6.6-0.3-7.5c-3.4-0.9-9.2,11.9-9.2,11.9
			c-0.6,0-1.4,0.2-1.9,0.2l-76.6-3.8l-6.1,25.9l85.4-14.8c0.2,0,0.3,0,0.3,0c7.3,3.1,10.2,0.5,10.2,0.5s8.8,1,9.9-1.7
			C446.2,144.8,435.9,144.6,435.9,144.6z"/>
	</g>
	<path class="st3" d="M266.6,434v23.4c0,24.4,27.7,25.1,27.7,2.2v-25.9L266.6,434z"/>
	<rect x="272.9" y="444.6" class="st4" width="15.3" height="2.2"/>
	<rect x="272.9" y="448.9" class="st4" width="15.3" height="2.2"/>
	<rect x="272.9" y="453.1" class="st4" width="15.3" height="2.2"/>
	<path class="st3" d="M210,434v23.4c0,24.4,27.7,25.1,27.7,2.2v-25.9L210,434z"/>
	<rect x="216.2" y="444.6" class="st4" width="15.3" height="2.2"/>
	<rect x="216.2" y="448.9" class="st4" width="15.3" height="2.2"/>
	<rect x="216.2" y="453.1" class="st4" width="15.3" height="2.2"/>
	<path class="st5" d="M188.4,254.5c0-23.6,3-58.4,15.6-83.7c4.2-8.4,9.4-15.8,16-21.2c7.9-6.6,17.6-10.6,29.7-10.6
		c13.1,0,23.4,4.6,31.7,12.1c5.1,4.7,9.5,10.6,13.1,17.2c13.8,25.2,17.2,61.2,17.2,86.2L188.4,254.5L188.4,254.5z"/>
	<line class="st6" x1="308.4" y1="254.8" x2="192" y2="254.8"/>
	<ellipse class="st4" cx="250.4" cy="152.1" rx="11" ry="8.1"/>
	<path class="st7" d="M142.9,133.6l1.5,28.4c29.4,0.1,46.8-1.1,59.6,8.9l24.4-25.1C201.2,132.4,170.9,131.9,142.9,133.6z"/>
	<path class="st7" d="M272.9,145.2l21.6,26.6c13.5-8.1,33.9-8.1,63.3-8.4v-28.4C329.8,133.4,308.2,129.9,272.9,145.2z"/>
	<path class="st0" d="M244.8,105.9h10.4c0,0,2.2,33.7,2.8,45.4c-1,4.9-4.6,5.6-7.8,5.6c-4.1-0.1-7.9-2.4-8.6-6.2L244.8,105.9z"/>
	<path class="st8" d="M244.8,105.9h10.4c0.9,9.5-10.8,44.7-13.4,44.7L244.8,105.9z"/>
	<circle class="st9" cx="280.1" cy="99.4" r="6"/>
	<circle class="st9" cx="216.8" cy="101.4" r="6.1"/>
	<path class="st0" d="M214.2,82.4c0,0-1.3,47.2,35.7,45.5c37.1-1.7,31.5-50,31.5-50s-2.1-18-49.2-13
		C232.2,64.9,216.6,65.3,214.2,82.4z"/>
	<path class="st8" d="M230.7,120c-8.7-5.1-13.8-14.3-15.3-23.9c-1-6.3-0.7-12.6-0.4-19c-1.3,2.5-2.2,5.5-2.4,9.4
		c0,0,3.3,47.1,39.9,41.8c8.9-1.3,15-5,19.2-10C259.6,125.7,242.6,127,230.7,120z"/>
	<path class="st10" d="M282.9,83.9c-0.9,0.9-2.8,9.2-7.7-2.9c0,0-12,2.4-19.6-8.5c0,0-12,8.7-14.8-2c0,0-1.3,10.3-11.7,8.9
		c0,0-7.3,20.3-14.5,10.4c0,0-13.6-10.2,5.8-21.6c0,0,2.4-22.3,24.2-10.7c0,0,12.1-12.3,18.5,2c0,0,18.4-0.8,17.9,12.5
		C281,72,288.2,78.6,282.9,83.9z"/>
	<path class="st11" d="M279.9,78c-2.4,0.4-4.1-1.2-5.1-3.2c-0.4,1.4-1.5,2.3-3.3,1.6c-3.3-1.2-3.1-5-5.2-7.3
		c-2.8,4.8-7.9,1.7-9.9-2.3c-1.8,2-5.1,3.7-6.3,0.7c-1.7,1.6-3.9,3.3-6.3,3.6c-2.4,0.3-3.7-1.5-4.3-3.5c-2.8,3.3-8.9,12.2-12.2,6.4
		c-1.1,4-1.5,8.7-5.3,11.2c-1.3,0.9-3.3,1.6-4.7,0.5c-1.1-0.8-1.1-2.1-0.7-3.3c-1.9,1-4.3,0.5-4.3-2.3c0-0.8,0.1-1.5,0.4-2.3
		c-9.3,9.4,1.6,15.3,1.6,15.3c8,8,13.5-10.6,13.5-10.6c10.4,0.2,10.9-9,10.9-9c3.8,9.2,14.9,0.3,14.9,0.3c8.5,8.9,20.2,5.6,20.2,5.6
		c5.9,10.2,7.1,2.6,7.9,1.8c1.9-2,1.9-4,1.1-5.7C282.4,76.8,281.5,77.8,279.9,78z"/>
	<circle class="st9" cx="269.9" cy="105.9" r="6.3"/>
	<circle class="st9" cx="228.1" cy="105.9" r="6.3"/>
	<ellipse class="st8" cx="250.5" cy="104.9" rx="3.1" ry="1.8"/>
	<g>
		<ellipse class="st12" cx="232.3" cy="100.1" rx="3.1" ry="4.9"/>
		<ellipse class="st12" cx="265.4" cy="100.1" rx="3.1" ry="4.9"/>
	</g>
	<circle class="st4" cx="266.4" cy="97.8" r="1"/>
	<circle class="st4" cx="233.1" cy="97.8" r="1"/>
	<path class="st13" d="M249.6,99.7c0.1,0.7,0.2,1.5-0.3,2.1c-0.4,0.5-1.2,0.7-1.6,1.2c-0.5,0.6-0.3,1.5,0.3,2
		c0.6,0.5,1.4,0.6,2.2,0.5"/>
	<path class="st10" d="M269.1,92.1h-5.9c-0.4,0-0.8-0.3-0.8-0.8l0,0c0-0.4,0.3-0.8,0.8-0.8h5.9c0.4,0,0.8,0.3,0.8,0.8l0,0
		C269.9,91.8,269.5,92.1,269.1,92.1z"/>
	<path class="st10" d="M235.2,92.1h-5.9c-0.4,0-0.8-0.3-0.8-0.8l0,0c0-0.4,0.3-0.8,0.8-0.8h5.9c0.4,0,0.8,0.3,0.8,0.8l0,0
		C236,91.8,235.7,92.1,235.2,92.1z"/>
</g>
<g>
	<g>
		<path class="st14" d="M245.4,108.6c3.1,1.1,6.6,1,9.6-0.4c0,0,0.1,0,0.1-0.1c4.7-2.4,9.2,4.5,3.3,8.6c-5.9,4.1-14.9,3.7-18.9-0.8
			C236.1,111.9,239.3,106.3,245.4,108.6z"/>
		<g>
			<defs>
				<path id="SVGID_1_" d="M245.4,108.6c3.1,1.1,6.6,1,9.6-0.4c0,0,0.1,0,0.1-0.1c4.7-2.4,9.2,4.5,3.3,8.6
					c-5.9,4.1-14.9,3.7-18.9-0.8C236.1,111.9,239.3,106.3,245.4,108.6z"/>
			</defs>
			<clipPath id="SVGID_2_">
				<use xlink:href="#SVGID_1_"  style="overflow:visible;"/>
			</clipPath>
			<path class="st15" d="M258.6,116.9c0,0,0.5-5.1-8.3-1c0,0-7.4-3.9-9.4,1.2C240.8,117.1,248,123.5,258.6,116.9z"/>
		</g>
	</g>
	<g>
		<defs>
			<path id="SVGID_3_" d="M245.5,108.4c3.1,1.1,6.6,1,9.6-0.4c0,0,0.1,0,0.1-0.1c4.7-2.4,9.2,4.5,3.3,8.6
				c-5.9,4.1-14.9,3.7-18.9-0.8C236.2,111.8,239.4,106.2,245.5,108.4z"/>
		</defs>
		<clipPath id="SVGID_4_">
			<use xlink:href="#SVGID_3_"  style="overflow:visible;"/>
		</clipPath>
		<path class="st16" d="M260.6,107.2c0,0,2.6,3.3-3.6,4.5c-2,0.4-12.6,1.1-14.7,0.7c-5.9-0.8-4-4.3-4-4.3S258.3,104.8,260.6,107.2z"
			/>
	</g>
</g>
<g id="skeleton_1_">
	<circle id="rightShoulder" cx="195.7" cy="147.1" r="4.1"/>
	<circle id="rightElbow" cx="144" cy="147.2" r="4.1"/>
	<ellipse id="rightWrist" cx="62.3" cy="150.4" rx="4.1" ry="4.1"/>
	<circle id="rightHip" cx="220.9" cy="255.1" r="4.1"/>
	<circle id="rightKnee" cx="224.1" cy="335.1" r="4.1"/>
	<circle id="rightAnkle" cx="224.1" cy="439.1" r="4.1"/>
	<circle id="leftShoulder" cx="302.2" cy="147.1" r="4.1"/>
	<circle id="leftElbow" cx="354.4" cy="147" r="4.1"/>
	<circle id="leftWrist" cx="436.1" cy="150.1" r="4.1"/>
	<circle id="leftHip" cx="279.1" cy="254.6" r="4.1"/>
	<circle id="leftKnee" cx="279.1" cy="335.1" r="4.1"/>
	<circle id="leftAnkle" cx="279.1" cy="439.1" r="4.1"/>
	<polygon class="st17" points="195.7,147.3 220.8,255.2 279,254.8 302.1,147.3 	"/>
	<polyline class="st17" points="195.2,147.3 143.8,147.3 62.2,150.4 	"/>
	<polyline class="st17" points="302.9,147.1 354.5,147.1 436.1,150.3 	"/>
	<polyline class="st17" points="220.8,255.2 224,335.3 224,439.3 	"/>
	<polyline class="st17" points="279,254.8 279,335.3 279,439.3 	"/>
	<circle id="rightEye0" cx="233.6" cy="80.1" r="0.4"/>
	<circle id="rightEye1" cx="236.2" cy="78.2" r="0.4"/>
	<circle id="rightEye2" cx="239.4" cy="78.2" r="0.4"/>
	<circle id="rightEye3" cx="242" cy="80.3" r="0.4"/>
	<circle id="rightEye4" cx="239.4" cy="80.8" r="0.4"/>
	<circle id="rightEye5" cx="236.2" cy="81.2" r="0.4"/>
	<circle id="rightBrow0" cx="230.5" cy="76" r="0.4"/>
	<circle id="rightBrow1" cx="232.5" cy="74.2" r="0.4"/>
	<circle id="rightBrow2" cx="235.6" cy="73.7" r="0.4"/>
	<circle id="rightBrow3" cx="239.3" cy="73.7" r="0.4"/>
	<circle id="rightBrow4" cx="244.2" cy="75.7" r="0.4"/>
	<circle id="nose0" cx="248.1" cy="77.7" r="0.4"/>
	<circle id="nose1" cx="248.1" cy="80.6" r="0.4"/>
	<circle id="nose2" cx="248.1" cy="83.3" r="0.4"/>
	<circle id="nose3" cx="248.1" cy="86.9" r="0.4"/>
	<circle id="nose4" cx="248.1" cy="89.6" r="0.4"/>
	<circle id="rightNose0" cx="242.8" cy="89.2" r="0.4"/>
	<circle id="rightNose1" cx="245.4" cy="89.2" r="0.4"/>
	<circle id="rightMouthCorner" cx="239.8" cy="100.2" r="0.4"/>
	<circle id="rightUpperLipTop0" cx="243.2" cy="98.5" r="0.4"/>
	<circle id="rightLowerLipTop0" cx="246.6" cy="101.4" r="0.4"/>
	<circle id="rightUpperLipTop1" cx="246.5" cy="97.9" r="0.4"/>
	<circle id="upperLipTopMid" cx="248.5" cy="98.4" r="0.4"/>
	<path id="rightMiddleLip" d="M241.6,99.9c0.2,0,0.4,0.2,0.4,0.4c0,0.2-0.2,0.4-0.4,0.4s-0.4-0.2-0.4-0.4S241.4,99.9,241.6,99.9z"/>
	<circle id="lowerLipBottomMid" cx="248.5" cy="105" r="0.4"/>
	<circle id="upperLipBottomMid" cx="248.5" cy="100.2" r="0.4"/>
	<circle id="lowerLipTopMid" cx="248.5" cy="101.8" r="0.4"/>
	<circle id="rightUpperLipBottom1" cx="246.6" cy="99.9" r="0.4"/>
	<circle id="rightLowerLipBottom0" cx="243" cy="103.3" r="0.4"/>
	<circle id="rightLowerLipBottom1" cx="246.5" cy="104.8" r="0.4"/>
	<circle id="jawMid" cx="248.5" cy="117.9" r="0.4"/>
	<circle id="rightJaw7" cx="241" cy="116.3" r="0.4"/>
	<circle id="rightJaw6" cx="236" cy="112.9" r="0.4"/>
	<circle id="rightJaw5" cx="230.2" cy="106.7" r="0.4"/>
	<circle id="rightJaw4" cx="226.8" cy="96.7" r="0.4"/>
	<circle id="rightJaw3" cx="226.4" cy="85.8" r="0.4"/>
	<circle id="rightJaw2" cx="226.4" cy="81.1" r="0.4"/>
	<circle id="rightJaw1" cx="226.8" cy="75.2" r="0.4"/>
	<circle id="rightJaw0" cx="228.1" cy="70.6" r="0.4"/>
	<circle id="topMid" cx="248.6" cy="57.5" r="0.4"/>
	<circle id="leftTop0" cx="258.5" cy="58.8" r="0.4"/>
	<circle id="leftTop1" cx="264.8" cy="63.5" r="0.4"/>
	<circle id="leftEye0" cx="263.4" cy="80.1" r="0.4"/>
	<circle id="leftEye1" cx="260.8" cy="78.2" r="0.4"/>
	<circle id="leftEye2" cx="257.7" cy="78.2" r="0.4"/>
	<circle id="leftEye3" cx="255.1" cy="80.3" r="0.4"/>
	<circle id="leftEye5" cx="260.8" cy="81.2" r="0.4"/>
	<circle id="leftBrow0" cx="266.4" cy="75.8" r="0.4"/>
	<circle id="leftBrow1" cx="264.4" cy="74.3" r="0.4"/>
	<circle id="leftBrow2" cx="261.2" cy="73.6" r="0.4"/>
	<circle id="leftBrow3" cx="257.6" cy="73.8" r="0.4"/>
	<circle id="leftBrow4" cx="252.6" cy="75.4" r="0.4"/>
	<circle id="leftNose0" cx="253.3" cy="89.2" r="0.4"/>
	<circle id="leftNose1" cx="250.9" cy="89.2" r="0.4"/>
	<circle id="leftMouthCorner" cx="257.3" cy="100.2" r="0.4"/>
	<circle id="leftUpperLipTop0" cx="253.8" cy="98.5" r="0.4"/>
	<circle id="leftUpperLipTop1" cx="250.6" cy="97.9" r="0.4"/>
	<path id="leftMiddleLip" d="M255.5,99.9c0.2,0,0.4,0.2,0.4,0.4c0,0.2-0.2,0.4-0.4,0.4c-0.2,0-0.4-0.2-0.4-0.4
		S255.3,99.9,255.5,99.9z"/>
	<circle id="leftUpperLipBottom1" cx="250.5" cy="99.9" r="0.4"/>
	<circle id="leftLowerLipTop0" cx="250.5" cy="101.4" r="0.4"/>
	<circle id="leftLowerLipBottom1" cx="250.6" cy="104.8" r="0.4"/>
	<circle id="leftLowerLipBottom0" cx="254.1" cy="103.3" r="0.4"/>
	<circle id="leftEye4" cx="257.7" cy="80.8" r="0.4"/>
	<circle id="leftJaw7" cx="255.9" cy="116.5" r="0.4"/>
	<circle id="leftJaw6" cx="260.9" cy="113.2" r="0.4"/>
	<circle id="leftJaw5" cx="266.7" cy="106.8" r="0.4"/>
	<circle id="leftJaw4" cx="270.1" cy="96.8" r="0.4"/>
	<circle id="leftJaw3" cx="270.5" cy="86.1" r="0.4"/>
	<circle id="leftJaw2" cx="270.5" cy="81.2" r="0.4"/>
	<circle id="leftJaw1" cx="270.1" cy="75.4" r="0.4"/>
	<circle id="leftJaw0" cx="268.9" cy="70.8" r="0.4"/>
	<polyline class="st17" points="248.5,57.5 238.6,58.8 232.4,63.5 228.1,70.6 226.8,75.2 226.4,81.1 226.4,85.8 226.8,96.7 
		230.2,106.7 236,112.9 241,116.3 248.5,117.9 255.9,116.5 260.9,113.2 266.7,106.8 270.1,96.8 270.5,86.1 270.5,81.2 270.1,75.4 
		268.9,70.8 264.8,63.5 258.5,58.8 248.5,57.5 	"/>
	<polyline class="st17" points="230.5,76 232.5,74.2 235.6,73.7 239.3,73.7 244.2,75.7 	"/>
	<polygon class="st17" points="233.6,80.1 236.2,78.2 239.4,78.2 242,80.3 239.4,80.8 236.2,81.2 	"/>
	<polyline class="st17" points="242.8,89.2 245.4,89.2 248.1,89.6 248.1,86.9 248.1,83.3 248.1,80.6 248.1,77.7 	"/>
	<polyline class="st17" points="266.3,75.8 264.3,74.3 261.1,73.6 257.5,73.8 252.5,75.4 	"/>
	<polygon class="st17" points="263.3,80.1 260.7,78.2 257.5,78.2 255,80.3 257.5,80.8 260.7,81.2 	"/>
	<polyline class="st17" points="253.3,89.2 250.8,89.2 248.1,89.6 	"/>
	<polygon class="st17" points="239.8,100.2 243.2,98.5 246.5,97.9 248.5,98.4 250.6,97.9 253.8,98.5 257.3,100.2 254.1,103.3 
		250.5,104.8 248.5,105 246.5,104.8 243,103.3 	"/>
	<polyline class="st17" points="239.8,100.2 241.6,100.3 246.6,99.9 248.5,100.2 250.5,99.9 255.5,100.3 257.3,100.2 	"/>
	<polyline class="st17" points="239.8,100.2 241.6,100.3 246.6,101.4 248.5,101.8 250.5,101.4 255.5,100.3 257.3,100.2 	"/>
	<circle id="rightTop0" cx="238.7" cy="58.8" r="0.4"/>
	<circle id="rightTop1" cx="232.4" cy="63.5" r="0.4"/>
</g>
</svg>
