<svg id="图层_1" data-name="图层 1" xmlns="http://www.w3.org/2000/svg" xmlns:xlink="http://www.w3.org/1999/xlink"
     width="393.77" height="423.67" viewBox="0 0 393.77 423.67">
    <defs>
        <style>
            .cls-1, .cls-14, .cls-18 {
            fill: none;
            }

            .cls-2 {
            fill: #f3af9d;
            }

            .cls-3 {
            fill: #00a797;
            }

            .cls-4 {
            fill: #008e7d;
            }

            .cls-5 {
            fill: #60504b;
            }

            .cls-6 {
            fill: #fff;
            }

            .cls-7 {
            fill: #abd1d5;
            }

            .cls-8 {
            fill: #99afb1;
            }

            .cls-9 {
            fill: #dd9b8e;
            }

            .cls-10 {
            fill: #df7977;
            }

            .cls-11 {
            fill: #303030;
            }

            .cls-12 {
            fill: #181818;
            }

            .cls-13 {
            fill: #2c323a;
            }

            .cls-14 {
            stroke: #4d4d4d;
            stroke-linecap: round;
            stroke-linejoin: round;
            stroke-width: 2.13px;
            }

            .cls-15 {
            fill: #111;
            }

            .cls-16 {
            clip-path: url(#clip-path);
            }

            .cls-17 {
            clip-path: url(#clip-path-2);
            }

            .cls-18 {
            stroke: #000;
            stroke-miterlimit: 10;
            }
        </style>
        <clipPath id="clip-path" transform="translate(0.03 0.02)">
            <path class="cls-1"
                  d="M190.1,56a12.77,12.77,0,0,0,9.6-.4c.1,0,.1,0,.1-.1h0c4.7-2.4,9.2,4.5,3.3,8.6s-14.9,3.7-18.9-.8C180.8,59.3,184,53.7,190.1,56Z"/>
        </clipPath>
        <clipPath id="clip-path-2" transform="translate(0.03 0.02)">
            <path class="cls-1"
                  d="M190.2,55.8a12.77,12.77,0,0,0,9.6-.4c.1,0,.1,0,.1-.1h0c4.7-2.4,9.2,4.5,3.3,8.6s-14.9,3.7-18.9-.8C180.9,59.2,184.1,53.6,190.2,55.8Z"/>
        </clipPath>
    </defs>
    <title>new1</title>
    <g id="illustration">
        <path class="cls-2" d="M148,220.6c0,3.7,1.3,58.1,2.7,88s4.1,72.8,4.1,72.8l27.7-.2,4-155.4Z"
              transform="translate(0.03 0.02)"/>
        <path class="cls-2" d="M204.6,220.6c0,3.7,1.3,58.1,2.7,88s4.1,72.8,4.1,72.8l27.7-.2,4-155.4Z"
              transform="translate(0.03 0.02)"/>
        <path class="cls-3"
              d="M140.8,194.7s-.9,35.7,3.1,57c0,0,26.1,9.2,43.5,2l2.5-18.7s6.5,2.2,11.9.6l2.7,18.7s17.4,9.2,45.4-2.9l-.4-57.3C249.4,194,170,204.1,140.8,194.7Z"
              transform="translate(0.03 0.02)"/>
        <path class="cls-4"
              d="M145.1,208.2c5.6,2.5,11.5,4,17.3,5.7a158.93,158.93,0,0,0,34.2,6.5,115.33,115.33,0,0,0,52.9-8.6l-.1-17.7s-79.5,10.2-108.7.7c0,0-.1,4.4-.1,11C142.1,206.6,143.5,207.5,145.1,208.2Z"
              transform="translate(0.03 0.02)"/>
        <path class="cls-5" d="M211.3,381.4v23.4c0,24.4,27.7,25.1,27.7,2.2V381.1Z" transform="translate(0.03 0.02)"/>
        <rect class="cls-6" x="217.63" y="392.02" width="15.3" height="2.2"/>
        <rect class="cls-6" x="217.63" y="396.32" width="15.3" height="2.2"/>
        <rect class="cls-6" x="217.63" y="400.52" width="15.3" height="2.2"/>
        <path class="cls-5" d="M154.7,381.4v23.4c0,24.4,27.7,25.1,27.7,2.2V381.1Z" transform="translate(0.03 0.02)"/>
        <rect class="cls-6" x="160.93" y="392.02" width="15.3" height="2.2"/>
        <rect class="cls-6" x="160.93" y="396.32" width="15.3" height="2.2"/>
        <rect class="cls-6" x="160.93" y="400.52" width="15.3" height="2.2"/>
        <path class="cls-7"
              d="M133.1,201.9c0-23.6,3-58.4,15.6-83.7,4.2-8.4,9.4-15.8,16-21.2a44.74,44.74,0,0,1,29.7-10.6,45.42,45.42,0,0,1,31.7,12.1,66.47,66.47,0,0,1,13.1,17.2c13.8,25.2,17.2,61.2,17.2,86.2Z"
              transform="translate(0.03 0.02)"/>
        <line class="cls-1" x1="253.13" y1="202.22" x2="136.73" y2="202.22"/>
        <ellipse class="cls-6" cx="195.13" cy="99.52" rx="11" ry="8.1"/>
        <path class="cls-8" d="M87.6,81l1.5,28.4c29.4.1,46.8-1.1,59.6,8.9l24.4-25.1C145.9,79.8,115.6,79.3,87.6,81Z"
              transform="translate(0.03 0.02)"/>
        <path class="cls-8" d="M217.6,92.6l21.6,26.6c13.5-8.1,33.9-8.1,63.3-8.4V82.4C274.5,80.8,252.9,77.3,217.6,92.6Z"
              transform="translate(0.03 0.02)"/>
        <path class="cls-2" d="M189.5,53.3h10.4s2.2,33.7,2.8,45.4c-1,4.9-4.6,5.6-7.8,5.6-4.1-.1-7.9-2.4-8.6-6.2Z"
              transform="translate(0.03 0.02)"/>
        <path class="cls-9" d="M189.5,53.3h10.4c.9,9.5-10.8,44.7-13.4,44.7Z" transform="translate(0.03 0.02)"/>
        <circle class="cls-10" cx="224.83" cy="46.82" r="6"/>
        <circle class="cls-10" cx="161.53" cy="48.82" r="6.1"/>
        <path class="cls-2"
              d="M158.9,29.8S157.6,77,194.6,75.3s31.5-50,31.5-50-2.1-18-49.2-13C176.9,12.3,161.3,12.7,158.9,29.8Z"
              transform="translate(0.03 0.02)"/>
        <path class="cls-9"
              d="M175.4,67.4c-8.7-5.1-13.8-14.3-15.3-23.9-1-6.3-.7-12.6-.4-19a21.83,21.83,0,0,0-2.4,9.4s3.3,47.1,39.9,41.8c8.9-1.3,15-5,19.2-10C204.3,73.1,187.3,74.4,175.4,67.4Z"
              transform="translate(0.03 0.02)"/>
        <path class="cls-11"
              d="M227.6,31.3c-.9.9-2.8,9.2-7.7-2.9a20,20,0,0,1-19.6-8.5s-12,8.7-14.8-2c0,0-1.3,10.3-11.7,8.9,0,0-7.3,20.3-14.5,10.4,0,0-13.6-10.2,5.8-21.6,0,0,2.4-22.3,24.2-10.7,0,0,12.1-12.3,18.5,2,0,0,18.4-.8,17.9,12.5C225.7,19.4,232.9,26,227.6,31.3Z"
              transform="translate(0.03 0.02)"/>
        <path class="cls-12"
              d="M224.6,25.4c-2.4.4-4.1-1.2-5.1-3.2a2.19,2.19,0,0,1-2.6,1.8,1.85,1.85,0,0,1-.7-.2c-3.3-1.2-3.1-5-5.2-7.3-2.8,4.8-7.9,1.7-9.9-2.3-1.8,2-5.1,3.7-6.3.7-1.7,1.6-3.9,3.3-6.3,3.6s-3.7-1.5-4.3-3.5c-2.8,3.3-8.9,12.2-12.2,6.4-1.1,4-1.5,8.7-5.3,11.2-1.3.9-3.3,1.6-4.7.5a2.64,2.64,0,0,1-.7-3.3c-1.9,1-4.3.5-4.3-2.3a5.87,5.87,0,0,1,.4-2.3c-9.3,9.4,1.6,15.3,1.6,15.3,8,8,13.5-10.6,13.5-10.6,10.4.2,10.9-9,10.9-9,3.8,9.2,14.9.3,14.9.3,8.5,8.9,20.2,5.6,20.2,5.6,5.9,10.2,7.1,2.6,7.9,1.8a4.74,4.74,0,0,0,1.1-5.7A3.19,3.19,0,0,1,224.6,25.4Z"
              transform="translate(0.03 0.02)"/>
        <circle class="cls-10" cx="214.63" cy="53.32" r="6.3"/>
        <circle class="cls-10" cx="172.83" cy="53.32" r="6.3"/>
        <ellipse class="cls-9" cx="195.23" cy="52.32" rx="3.1" ry="1.8"/>
        <g>
            <ellipse class="cls-13" cx="177.03" cy="47.52" rx="3.1" ry="4.9"/>
            <ellipse class="cls-13" cx="210.13" cy="47.52" rx="3.1" ry="4.9"/>
        </g>
        <circle class="cls-6" cx="211.13" cy="45.22" r="1"/>
        <circle class="cls-6" cx="177.83" cy="45.22" r="1"/>
        <path class="cls-14"
              d="M194.3,47.1a2.58,2.58,0,0,1-.3,2.1c-.4.5-1.2.7-1.6,1.2a1.44,1.44,0,0,0,.3,2,2.81,2.81,0,0,0,2.2.5"
              transform="translate(0.03 0.02)"/>
        <path class="cls-11"
              d="M213.8,39.5h-5.9a.79.79,0,0,1-.8-.8h0a.79.79,0,0,1,.8-.8h5.9a.79.79,0,0,1,.8.8h0a.74.74,0,0,1-.8.8Z"
              transform="translate(0.03 0.02)"/>
        <path class="cls-11"
              d="M179.9,39.5H174a.79.79,0,0,1-.8-.8h0a.79.79,0,0,1,.8-.8h5.9a.79.79,0,0,1,.8.8h0a.77.77,0,0,1-.7.8Z"
              transform="translate(0.03 0.02)"/>
        <path class="cls-2"
              d="M13.1,90S-.1,89.5.3,86.8s10.7-.4,12.4,0C2.6,84.2-.4,82,0,80.4c.3-1,5.1.5,9,1.8-3.3-1.4-7-3.3-6.1-4.8,1.6-2.5,12.3,3.8,12.3,3.8s-3.1-6.6.3-7.5,9.2,11.9,9.2,11.9c.6,0,1.4.2,1.9.2L89,82.7l1.9,22L24,93.1h-.3c-7.3,3.1-10.2.5-10.2.5s-8.8,1-9.9-1.7C2.8,90.2,13.1,90,13.1,90Z"
              transform="translate(0.03 0.02)"/>
        <path class="cls-2"
              d="M380.6,92s13.2-.5,12.8-3.2-10.7-.4-12.4,0c10.1-2.6,13.1-4.8,12.7-6.4-.3-1-5.1.5-9,1.8,3.3-1.4,7-3.3,6.1-4.8-1.6-2.5-12.3,3.8-12.3,3.8s3.1-6.6-.3-7.5S369,87.6,369,87.6c-.6,0-1.4.2-1.9.2l-66.5-3.3-.5,22.7,69.8-12.1h.3c7.3,3.1,10.2.5,10.2.5s8.8,1,9.9-1.7C390.9,92.2,380.6,92,380.6,92Z"
              transform="translate(0.03 0.02)"/>
        <g id="嘴巴">
            <g>
                <path class="cls-15"
                      d="M190.1,56a12.77,12.77,0,0,0,9.6-.4c.1,0,.1,0,.1-.1h0c4.7-2.4,9.2,4.5,3.3,8.6s-14.9,3.7-18.9-.8C180.8,59.3,184,53.7,190.1,56Z"
                      transform="translate(0.03 0.02)"/>
                <g class="cls-16">
                    <path class="cls-10"
                          d="M203.3,64.3s.5-5.1-8.3-1c0,0-7.4-3.9-9.4,1.2C185.5,64.5,192.7,70.9,203.3,64.3Z"
                          transform="translate(0.03 0.02)"/>
                </g>
            </g>
            <g class="cls-17">
                <path class="cls-6"
                      d="M205.3,54.6s2.6,3.3-3.6,4.5c-2,.4-12.6,1.1-14.7.7-5.9-.8-4-4.3-4-4.3S203,52.2,205.3,54.6Z"
                      transform="translate(0.03 0.02)"/>
            </g>
        </g>
    </g>
    <g id="skeleton">
        <circle id="rightShoulder" cx="140.43" cy="94.52" r="4.1"/>
        <circle id="rightElbow" cx="88.73" cy="94.62" r="4.1"/>
        <circle id="rightWrist" cx="17.03" cy="86.82" r="4.1"/>
        <circle id="rightHip" cx="165.63" cy="202.52" r="4.1"/>
        <circle id="rightKnee" cx="168.83" cy="310.52" r="4.1"/>
        <circle id="rightAnkle" cx="168.83" cy="381.52" r="4.1"/>
        <circle id="leftShoulder" cx="246.93" cy="94.52" r="4.1"/>
        <circle id="leftElbow" cx="299.13" cy="94.42" r="4.1"/>
        <circle id="leftWrist" cx="380.83" cy="88.52" r="4.1"/>
        <circle id="leftHip" cx="223.83" cy="202.02" r="4.1"/>
        <circle id="leftKnee" cx="223.83" cy="310.52" r="4.1"/>
        <circle id="leftAnkle" cx="223.83" cy="381.52" r="4.1"/>
        <polygon class="cls-18" points="140.44 94.72 165.53 202.62 223.74 202.22 246.84 94.72 140.44 94.72"/>
        <polyline class="cls-18" points="139.94 94.72 88.53 94.72 18.43 86.82"/>
        <polyline class="cls-18" points="247.63 94.52 299.24 94.52 380.83 88.92"/>
        <polyline class="cls-18" points="165.53 202.62 168.74 282.72 168.74 377.52"/>
        <polyline class="cls-18" points="223.74 202.22 223.74 282.72 223.74 377.52"/>
        <circle id="rightEye0" cx="178.33" cy="36.52" r="0.4"/>
        <circle id="rightEye1" cx="180.93" cy="34.62" r="0.4"/>
        <circle id="rightEye2" cx="184.13" cy="34.62" r="0.4"/>
        <circle id="rightEye3" cx="186.73" cy="36.72" r="0.4"/>
        <circle id="rightEye4" cx="184.13" cy="37.22" r="0.4"/>
        <circle id="rightEye5" cx="180.93" cy="37.62" r="0.4"/>
        <circle id="rightBrow0" cx="175.23" cy="32.42" r="0.4"/>
        <circle id="rightBrow1" cx="177.23" cy="30.62" r="0.4"/>
        <circle id="rightBrow2" cx="180.33" cy="30.12" r="0.4"/>
        <circle id="rightBrow3" cx="184.03" cy="30.12" r="0.4"/>
        <circle id="rightBrow4" cx="188.93" cy="32.12" r="0.4"/>
        <circle id="nose0" cx="192.83" cy="34.12" r="0.4"/>
        <circle id="nose1" cx="192.83" cy="37.02" r="0.4"/>
        <circle id="nose2" cx="192.83" cy="39.72" r="0.4"/>
        <circle id="nose3" cx="192.83" cy="43.32" r="0.4"/>
        <circle id="nose4" cx="192.83" cy="46.02" r="0.4"/>
        <circle id="rightNose0" cx="187.53" cy="45.62" r="0.4"/>
        <circle id="rightNose1" cx="190.13" cy="45.62" r="0.4"/>
        <circle id="rightMouthCorner" cx="184.53" cy="56.62" r="0.4"/>
        <circle id="rightUpperLipTop0" cx="187.93" cy="54.92" r="0.4"/>
        <circle id="rightLowerLipTop0" cx="191.33" cy="57.82" r="0.4"/>
        <circle id="rightUpperLipTop1" cx="191.23" cy="54.32" r="0.4"/>
        <circle id="upperLipTopMid" cx="193.23" cy="54.82" r="0.4"/>
        <path id="rightMiddleLip" d="M186.3,56.3a.4.4,0,1,1-.4.4h0A.43.43,0,0,1,186.3,56.3Z"
              transform="translate(0.03 0.02)"/>
        <circle id="lowerLipBottomMid" cx="193.23" cy="61.42" r="0.4"/>
        <circle id="upperLipBottomMid" cx="193.23" cy="56.62" r="0.4"/>
        <circle id="lowerLipTopMid" cx="193.23" cy="58.22" r="0.4"/>
        <circle id="rightUpperLipBottom1" cx="191.33" cy="56.32" r="0.4"/>
        <circle id="rightLowerLipBottom0" cx="187.73" cy="59.72" r="0.4"/>
        <circle id="rightLowerLipBottom1" cx="191.23" cy="61.22" r="0.4"/>
        <circle id="jawMid" cx="193.23" cy="74.32" r="0.4"/>
        <circle id="rightJaw7" cx="185.73" cy="72.72" r="0.4"/>
        <circle id="rightJaw6" cx="180.73" cy="69.32" r="0.4"/>
        <circle id="rightJaw5" cx="174.93" cy="63.12" r="0.4"/>
        <circle id="rightJaw4" cx="171.53" cy="53.12" r="0.4"/>
        <circle id="rightJaw3" cx="171.13" cy="42.22" r="0.4"/>
        <circle id="rightJaw2" cx="171.13" cy="37.52" r="0.4"/>
        <circle id="rightJaw1" cx="171.53" cy="31.62" r="0.4"/>
        <circle id="rightJaw0" cx="172.83" cy="27.02" r="0.4"/>
        <circle id="topMid" cx="193.33" cy="13.92" r="0.4"/>
        <circle id="leftTop0" cx="203.23" cy="15.22" r="0.4"/>
        <circle id="leftTop1" cx="209.53" cy="19.92" r="0.4"/>
        <circle id="leftEye0" cx="208.13" cy="36.52" r="0.4"/>
        <circle id="leftEye1" cx="205.53" cy="34.62" r="0.4"/>
        <path id="leftEye2" d="M202.4,34.2a.4.4,0,1,1-.4.4h0A.43.43,0,0,1,202.4,34.2Z"
              transform="translate(0.03 0.02)"/>
        <circle id="leftEye3" cx="199.83" cy="36.72" r="0.4"/>
        <circle id="leftEye5" cx="205.53" cy="37.62" r="0.4"/>
        <circle id="leftBrow0" cx="211.13" cy="32.22" r="0.4"/>
        <circle id="leftBrow1" cx="209.13" cy="30.72" r="0.4"/>
        <circle id="leftBrow2" cx="205.93" cy="30.02" r="0.4"/>
        <circle id="leftBrow3" cx="202.33" cy="30.22" r="0.4"/>
        <circle id="leftBrow4" cx="197.33" cy="31.82" r="0.4"/>
        <circle id="leftNose0" cx="198.03" cy="45.62" r="0.4"/>
        <circle id="leftNose1" cx="195.63" cy="45.62" r="0.4"/>
        <circle id="leftMouthCorner" cx="202.03" cy="56.62" r="0.4"/>
        <circle id="leftUpperLipTop0" cx="198.53" cy="54.92" r="0.4"/>
        <circle id="leftUpperLipTop1" cx="195.33" cy="54.32" r="0.4"/>
        <path id="leftMiddleLip" d="M200.2,56.3a.4.4,0,1,1-.4.4h0A.43.43,0,0,1,200.2,56.3Z"
              transform="translate(0.03 0.02)"/>
        <circle id="leftUpperLipBottom1" cx="195.23" cy="56.32" r="0.4"/>
        <circle id="leftLowerLipTop0" cx="195.23" cy="57.82" r="0.4"/>
        <circle id="leftLowerLipBottom1" cx="195.33" cy="61.22" r="0.4"/>
        <circle id="leftLowerLipBottom0" cx="198.83" cy="59.72" r="0.4"/>
        <path id="leftEye4" d="M202.4,36.8a.4.4,0,1,1-.4.4h0A.43.43,0,0,1,202.4,36.8Z"
              transform="translate(0.03 0.02)"/>
        <circle id="leftJaw7" cx="200.63" cy="72.92" r="0.4"/>
        <circle id="leftJaw6" cx="205.63" cy="69.62" r="0.4"/>
        <circle id="leftJaw5" cx="211.43" cy="63.22" r="0.4"/>
        <circle id="leftJaw4" cx="214.83" cy="53.22" r="0.4"/>
        <circle id="leftJaw3" cx="215.23" cy="42.52" r="0.4"/>
        <circle id="leftJaw2" cx="215.23" cy="37.62" r="0.4"/>
        <circle id="leftJaw1" cx="214.83" cy="31.82" r="0.4"/>
        <circle id="leftJaw0" cx="213.63" cy="27.22" r="0.4"/>
        <polyline class="cls-18"
                  points="193.24 13.92 183.34 15.22 177.13 19.92 172.84 27.02 171.53 31.62 171.13 37.52 171.13 42.22 171.53 53.12 174.94 63.12 180.74 69.32 185.74 72.72 193.24 74.32 200.63 72.92 205.63 69.62 211.44 63.22 214.84 53.22 215.24 42.52 215.24 37.62 214.84 31.82 213.63 27.22 209.53 19.92 203.24 15.22 193.24 13.92"/>
        <polyline class="cls-18" points="175.24 32.42 177.24 30.62 180.34 30.12 184.03 30.12 188.94 32.12"/>
        <polygon class="cls-18"
                 points="178.34 36.52 180.94 34.62 184.13 34.62 186.74 36.72 184.13 37.22 180.94 37.62 178.34 36.52"/>
        <polyline class="cls-18"
                  points="187.53 45.62 190.13 45.62 192.84 46.02 192.84 43.32 192.84 39.72 192.84 37.02 192.84 34.12"/>
        <polyline class="cls-18" points="211.03 32.22 209.03 30.72 205.84 30.02 202.24 30.22 197.24 31.82"/>
        <polygon class="cls-18"
                 points="208.03 36.52 205.44 34.62 202.24 34.62 199.74 36.72 202.24 37.22 205.44 37.62 208.03 36.52"/>
        <polyline class="cls-18" points="198.03 45.62 195.53 45.62 192.84 46.02"/>
        <polygon class="cls-18"
                 points="184.53 56.62 187.94 54.92 191.24 54.32 193.24 54.82 195.34 54.32 198.53 54.92 202.03 56.62 198.84 59.72 195.24 61.22 193.24 61.42 191.24 61.22 187.74 59.72 184.53 56.62"/>
        <polyline class="cls-18"
                  points="184.53 56.62 186.34 56.72 191.34 56.32 193.24 56.62 195.24 56.32 200.24 56.72 202.03 56.62"/>
        <polyline class="cls-18"
                  points="184.53 56.62 186.34 56.72 191.34 57.82 193.24 58.22 195.24 57.82 200.24 56.72 202.03 56.62"/>
        <circle id="rightTop0" cx="183.43" cy="15.22" r="0.4"/>
        <circle id="rightTop1" cx="177.13" cy="19.92" r="0.4"/>
    </g>
</svg>
